<?xml version="1.0" encoding="UTF-8" standalone="no"?>
<svg
   version="1.0"
   width="790.00006pt"
   height="790.00006pt"
   viewBox="0 0 790.00006 790.00006"
   preserveAspectRatio="xMidYMid"
   id="svg5"
   xmlns="http://www.w3.org/2000/svg"
   xmlns:svg="http://www.w3.org/2000/svg">
  <defs
     id="defs5" />
  <g
     transform="matrix(0.1,0,0,-0.1,0,790)"
     fill="#000000"
     stroke="none"
     id="g5"
     style="fill:#970000;fill-opacity:1">
    <path
       d="m 5632,7733 c -11,-10 -395,-738 -853,-1618 -457,-880 -835,-1603 -838,-1607 -3,-4 -379,261 -834,588 -456,327 -839,597 -851,600 -29,7 -59,-21 -54,-50 3,-12 276,-399 608,-861 332,-462 604,-847 604,-855 -1,-13 -538,-1665 -1050,-3229 -109,-330 -164,-511 -160,-527 8,-29 41,-40 68,-22 11,8 383,711 858,1621 460,884 839,1609 841,1612 3,2 377,-264 832,-591 455,-326 838,-596 851,-600 29,-7 59,21 54,50 -3,12 -276,399 -608,861 -332,462 -604,847 -604,855 1,13 1131,3483 1194,3664 24,71 25,90 4,110 -20,21 -37,20 -62,-1 z"
       id="path1"
       style="fill:#970000;fill-opacity:1" />
    <path
       d="m 3625,5995 c -353,-61 -622,-174 -902,-377 -68,-49 -83,-65 -83,-87 0,-14 4,-31 8,-37 12,-20 309,-194 330,-194 11,0 62,26 115,58 166,102 379,182 577,218 183,34 503,26 648,-16 20,-5 43,-5 56,0 28,10 198,293 198,328 1,36 -19,49 -107,71 -262,66 -588,80 -840,36 z"
       id="path2"
       style="fill:#970000;fill-opacity:1" />
    <path
       d="m 2295,5193 c -62,-79 -143,-209 -205,-332 -215,-430 -269,-957 -146,-1436 116,-452 380,-848 758,-1136 76,-58 116,-72 135,-46 12,15 97,346 95,370 0,10 -54,71 -119,135 -284,280 -440,583 -498,969 -57,380 41,815 256,1137 21,32 39,67 39,77 0,10 -49,85 -108,166 -132,180 -138,183 -207,96 z"
       id="path3"
       style="fill:#970000;fill-opacity:1" />
    <path
       d="m 5270,4073 c -300,-41 -555,-77 -567,-79 -43,-8 -42,-90 0,-98 12,-3 218,-31 457,-63 l 435,-59 -3,-55 c -10,-180 -123,-486 -256,-689 -31,-46 -56,-89 -56,-95 0,-20 200,-320 217,-326 33,-11 54,4 114,83 165,216 287,469 355,733 36,138 63,324 65,440 l 1,97 -78,80 c -66,67 -123,111 -136,107 -2,-1 -248,-35 -548,-76 z"
       id="path4"
       style="fill:#970000;fill-opacity:1" />
    <path
       d="m 4860,2559 c -195,-131 -455,-225 -717,-260 -114,-15 -366,-6 -478,16 -149,30 -160,30 -179,4 -47,-65 -176,-296 -176,-315 0,-32 20,-43 122,-70 476,-123 1002,-70 1434,144 122,60 255,143 354,219 67,53 75,62 75,93 0,33 -3,35 -158,127 -88,51 -169,93 -180,93 -12,-1 -56,-23 -97,-51 z"
       id="path5"
       style="fill:#970000;fill-opacity:1" />
  </g>
</svg>
