<svg class="svg-icon"
    style="width: 1em;height: 1em;vertical-align: middle;fill: currentColor;overflow: hidden;"
    viewBox="0 0 1024 1024" version="1.1" xmlns="http://www.w3.org/2000/svg">
    <path
        d="M424.91904 108.291413c-39.113387 8.697173-77.80352 20.800853-114.0736 39.058774 0.82944 32.03072 2.901333 62.72 7.099733 93.897386-14.09024 9.024853-28.893867 16.769707-42.052266 27.333974-13.370027 10.284373-27.02336 20.125013-39.12704 32.1536-24.183467-15.99488-49.780053-31.0272-76.151467-44.294827-28.422827 30.58688-54.99904 63.604053-76.711253 100.54656 16.336213 26.422613 33.385813 51.18976 51.797333 74.693973h0.515413v226.75456c0.416427 0 0.82944 0.017067 1.23904 0.058027l139.014827 13.400747a14.967467 14.967467 0 0 1 13.492907 13.861546l4.287146 61.364907 121.26208 8.6528 8.352427-56.63744a14.967467 14.967467 0 0 1 14.810453-12.786347h146.660694a14.967467 14.967467 0 0 1 14.803626 12.786347l8.35584 56.63744 121.258667-8.6528 4.283733-61.364907a14.974293 14.974293 0 0 1 13.49632-13.858133l138.9568-13.40416c0.4096-0.04096 0.8192-0.054613 1.235627-0.058027V640.341333l0.058027-0.017066v-208.633174h0.512c18.418347-23.504213 35.457707-48.27136 51.800746-74.693973-21.705387-36.94592-48.298667-69.963093-76.71808-100.549973-26.361173 13.27104-51.968 28.299947-76.151466 44.29824-12.100267-12.028587-25.73312-21.869227-39.1168-32.1536-13.1584-10.564267-27.979093-18.312533-42.038614-27.337387 4.184747-31.173973 6.253227-61.863253 7.089494-93.893973-36.28032-18.261333-74.963627-30.365013-114.09408-39.058774-15.622827 26.258773-29.91104 54.69184-42.35264 82.490027-14.75584-2.464427-29.579947-3.3792-44.424534-3.556693v-0.023894c-0.1024 0-0.197973 0.023893-0.28672 0.023894-0.09216 0-0.187733-0.023893-0.279893-0.023894v0.023894c-14.871893 0.177493-29.682347 1.092267-44.4416 3.556693-12.438187-27.798187-26.71616-56.231253-42.359467-82.490027z m-109.9776 331.70432c46.271147 0 83.77344 37.471573 83.77344 83.729067 0 46.2848-37.502293 83.78368-83.77344 83.78368-46.250667 0-83.7632-37.49888-83.7632-83.78368 0-46.25408 37.512533-83.729067 83.7632-83.729067z m394.12736 0c46.24384 0 83.75296 37.471573 83.75296 83.729067 0 46.2848-37.512533 83.78368-83.75296 83.78368-46.277973 0-83.78368-37.49888-83.78368-83.78368 0-46.25408 37.502293-83.729067 83.78368-83.729067z m-197.072213 48.9984c14.892373 0 26.989227 10.98752 26.989226 24.507734v77.120853c0 13.530453-12.096853 24.507733-26.989226 24.507733s-26.965333-10.980693-26.965334-24.507733v-77.124267c0-13.5168 12.069547-24.50432 26.965334-24.50432z"
        fill="#4FC3F7" />
    <path
        d="M763.01312 700.47744l-4.304213 61.692587a14.974293 14.974293 0 0 1-13.868374 13.88544l-148.0704 10.564266a14.97088 14.97088 0 0 1-15.872-12.7488l-8.492373-57.582933H451.584l-8.492373 57.582933a14.96064 14.96064 0 0 1-15.872 12.752214l-148.0704-10.56768a14.97088 14.97088 0 0 1-13.871787-13.88544l-4.3008-61.689174-124.99968-12.05248c0.058027 13.43488 0.228693 28.14976 0.228693 31.081814 0 132.017493 167.468373 195.467947 375.528107 196.1984h0.512c208.059733-0.733867 375.466667-64.187733 375.466667-196.1984 0-2.983253 0.18432-17.640107 0.24576-31.081814z"
        fill="#4FC3F7" />
</svg>