<svg class="svg-icon"
    style="width: 1em;height: 1em;vertical-align: middle;fill: currentColor;overflow: hidden;"
    viewBox="0 0 1024 1024" version="1.1" xmlns="http://www.w3.org/2000/svg">
    <path
        d="M554.666667 384h234.666666L554.666667 149.333333V384M256 85.333333h341.333333l256 256v512a85.333333 85.333333 0 0 1-85.333333 85.333334H256a85.333333 85.333333 0 0 1-85.333333-85.333334V170.666667c0-47.36 37.973333-85.333333 85.333333-85.333334m5.12 576l159.573333 159.573334 60.586667-60.16-99.413333-99.413334 99.413333-99.413333-60.586667-60.16-159.573333 159.573333m476.16 0l-159.573333-159.573333-60.586667 60.16 99.413333 99.413333-99.413333 99.413334 60.586667 60.16 159.573333-159.573334z"
        fill="#e37933" />
</svg>