<svg class="svg-icon"
    style="width: 1em;height: 1em;vertical-align: middle;fill: currentColor;overflow: hidden;"
    viewBox="0 0 1024 1024" version="1.1" xmlns="http://www.w3.org/2000/svg">
    <path
        d="M128 128v768h768V128z m218.453333 383.744h119.338667c16.298667 0 30.293333 1.024 42.026667 3.2s22.784 6.741333 33.066666 13.909333c10.368 7.125333 18.56 16.426667 24.576 27.861334 6.186667 11.306667 9.301333 25.514667 9.301334 42.666666 0 23.594667-4.778667 42.709333-14.293334 57.6-9.386667 14.848-22.826667 27.221333-40.362666 37.12l92.074666 136.704H525.226667l-75.221334-117.034666h-32.810666v117.034666H346.453333z m281.301334 0h199.509333v61.696h-128.725333v55.082667h119.509333v61.696h-119.509333v78.848h128.725333v61.696h-199.509333z m-210.56 58.666667v85.930666h21.888c11.349333 0 20.906667-0.597333 28.586666-1.877333 7.68-1.28 14.037333-4.266667 19.2-8.832a40.96 40.96 0 0 0 10.794667-14.506667c2.346667-5.461333 3.498667-12.672 3.498667-21.674666 0-7.978667-1.450667-14.933333-4.266667-20.608a29.781333 29.781333 0 0 0-14.634667-13.525334 46.336 46.336 0 0 0-16.853333-4.053333 256.554667 256.554667 0 0 0-22.442667-0.853333z"
        fill="#F44336" />
</svg>