<svg xmlns="http://www.w3.org/2000/svg" viewBox="0 0 122.88 122.88" width="122.88" height="122.88">
    <path fill="#fbd433" d="M 45.54,2.11 A 61.42,61.42 0 1 1 2.11,77.34 61.42,61.42 0 0 1 45.54,2.11 Z"/>
    <path fill="#141518" d="M 28.42,70.79 C 50.21452,91.884268 72.25043,92.507167 94.55,70.77 L 97,73.14 C 73.790055,101.47698 50.109535,102.65137 25.9,73.29 Z M 77.1,32.27 c 4.3,0 7.78,5 7.78,11.27 0,6.27 -3.48,11.27 -7.78,11.27 -4.3,0 -7.79,-5 -7.79,-11.27 0,-6.27 3.49,-11.27 7.79,-11.27 z m -31.32,0 c 4.3,0 7.79,5 7.79,11.27 0,6.27 -3.49,11.27 -7.79,11.27 -4.3,0 -7.78,-5.04 -7.78,-11.27 0,-6.23 3.48,-11.27 7.78,-11.27 z"/>
</svg>